<svg width="164" height="42" viewBox="0 0 164 42" fill="none" xmlns="http://www.w3.org/2000/svg">
<g clip-path="url(#clip0_41_4515)">
<path d="M0 6.28589H2.86201V12.4469H10.2789V6.28589H13.1409V21.2528H10.2789V14.9356H2.86201V21.2528H0V6.28589Z" fill="#003469"/>
<path d="M18.7818 19.8002L14.25 9.91772H17.2422L20.2576 16.6951L23.0531 9.91772H26.0685L19.4213 25.0612H16.4059L18.7818 19.8002Z" fill="#003469"/>
<path d="M37.597 21.2529H34.8015V19.667C34.1851 20.6799 32.9755 21.5162 31.2132 21.5162C28.2643 21.5162 26.8984 19.4905 26.8984 16.5851V9.91479H29.6939V16.2755C29.6939 18.0812 30.5534 19.0275 32.2029 19.0275C33.589 19.0275 34.515 18.0812 34.8015 17.0481V9.91769H37.597V21.2529Z" fill="#003469"/>
<path d="M39.7666 9.91764H42.5621V11.5035C43.1784 10.4906 44.3881 9.6543 46.1504 9.6543C49.0992 9.6543 50.4651 11.68 50.4651 14.5854V21.2557H47.6697V14.895C47.6697 13.0893 46.8102 12.143 45.1607 12.143C43.7746 12.143 42.8485 13.0893 42.5621 14.1253V21.2557H39.7666V9.92053V9.91764Z" fill="#003469"/>
<path d="M60.9124 19.9536C60.0761 20.8999 58.8433 21.5163 57.3675 21.5163C54.2218 21.5163 51.9097 19.1838 51.9097 15.5955C51.9097 12.0071 54.2218 9.65152 57.3675 9.65152C58.8433 9.65152 60.0761 10.2882 60.9124 11.2373V5.62329H63.7079V21.25H60.9124V19.9507V19.9536ZM60.9124 17.3347V13.8563C60.406 12.7769 59.2398 12.1402 57.9838 12.1402C56.1578 12.1402 54.7485 13.3962 54.7485 15.5955C54.7485 17.7948 56.1578 19.0276 57.9838 19.0276C59.2398 19.0276 60.406 18.388 60.9124 17.3318" fill="#003469"/>
<path d="M74.3172 19.9537C73.4809 20.9 72.2481 21.5164 70.7752 21.5164C67.6267 21.5164 65.3174 19.1839 65.3174 15.5956C65.3174 12.0072 67.6296 9.65161 70.7752 9.65161C72.251 9.65161 73.4809 10.2883 74.3172 11.2374V9.91785H77.1127V21.253H74.3172V19.9537ZM74.3172 17.3348V13.8564C73.8108 12.777 72.6446 12.1403 71.3887 12.1403C69.5627 12.1403 68.1534 13.3962 68.1534 15.5956C68.1534 17.7949 69.5627 19.0277 71.3887 19.0277C72.6446 19.0277 73.8108 18.3881 74.3172 17.3319" fill="#003469"/>
<path d="M79.2656 5.66943H82.1276V8.57485H79.2656V5.66943ZM79.309 10.4906H82.1045V21.2528H79.309V10.4906Z" fill="#003469"/>
<path d="M133.699 0.0410156L127.679 6.05732L124.817 3.42971L123.48 4.76666L127.679 8.62126L135.036 1.26801L133.699 0.0410156Z" fill="#00AFD5"/>
<path d="M86.1729 13.7636C86.1729 9.40257 89.3214 6.01099 93.6824 6.01099C96.7209 6.01099 99.0794 7.5534 100.335 9.88874L98.7495 10.9681C97.8032 9.13923 96.1074 7.9296 93.7055 7.9296C90.4239 7.9296 88.2651 10.4617 88.2651 13.7665C88.2651 17.0713 90.4239 19.6034 93.7055 19.6034C96.1074 19.6034 97.8032 18.3908 98.7495 16.5648L100.335 17.6442C99.0794 19.9796 96.7238 21.522 93.6824 21.522C89.3214 21.522 86.1729 18.1304 86.1729 13.7694V13.7636Z" fill="#00AFD5"/>
<path d="M101.05 15.7459C101.05 12.3312 103.295 9.97559 106.49 9.97559C109.685 9.97559 111.777 12.3312 111.777 15.3929C111.777 15.7025 111.734 16.1192 111.69 16.4289H103.055C103.298 18.4343 104.598 19.7336 106.733 19.7336C108.209 19.7336 109.552 18.9407 110.325 17.7948L111.537 19.0507C110.435 20.5265 108.762 21.5162 106.646 21.5162C103.275 21.5162 101.053 19.0275 101.053 15.7459H101.05ZM103.075 14.7765H109.772C109.639 12.881 108.273 11.7148 106.49 11.7148C104.708 11.7148 103.385 12.8376 103.075 14.7765Z" fill="#00AFD5"/>
<path d="M126.646 10.1868H128.628V21.2528H126.646V10.1868Z" fill="#00AFD5"/>
<path d="M137.851 10.1868H139.833V21.2528H137.851V10.1868Z" fill="#00AFD5"/>
<path d="M131.98 11.7987H130.13V10.1868H131.98V9.47201C131.98 7.42317 133.192 5.97046 135.571 5.97046H137.57V7.62284H136.034C134.625 7.62284 133.965 8.19582 133.965 9.49516V10.1868H136.367V11.7987H133.965V21.2528H131.982V11.7987H131.98Z" fill="#00AFD5"/>
<path d="M141.26 15.7459C141.26 12.3312 143.505 9.97559 146.7 9.97559C149.895 9.97559 151.987 12.3312 151.987 15.3929C151.987 15.7025 151.944 16.1192 151.9 16.4289H143.265C143.508 18.4343 144.808 19.7336 146.943 19.7336C148.419 19.7336 149.762 18.9407 150.535 17.7948L151.747 19.0507C150.645 20.5265 148.972 21.5162 146.856 21.5162C143.485 21.5162 141.263 19.0275 141.263 15.7459H141.26ZM143.288 14.7765H149.985C149.852 12.881 148.486 11.7148 146.703 11.7148C144.92 11.7148 143.598 12.8376 143.288 14.7765Z" fill="#00AFD5"/>
<path d="M162.018 19.6876C161.158 20.7901 159.816 21.4933 158.25 21.4933C155.145 21.4933 152.853 19.158 152.853 15.723C152.853 12.288 155.145 9.97294 158.25 9.97294C159.813 9.97294 161.158 10.679 162.018 11.7787V5.50195H164V21.2502H162.018V19.6876ZM162.018 17.6185V13.8738C161.445 12.6179 160.146 11.7816 158.603 11.7816C156.534 11.7816 154.882 13.2575 154.882 15.723C154.882 18.1886 156.534 19.6876 158.603 19.6876C160.146 19.6876 161.445 18.8513 162.018 17.6185Z" fill="#00AFD5"/>
<path d="M113.23 10.1868H115.192V11.8392C115.644 10.9392 116.92 10.1868 118.526 10.1868H119.088V11.7986H118.766C117.001 11.842 115.783 12.6639 115.195 14.3655V21.2528H113.233V10.1868H113.23Z" fill="#00AFD5"/>
<path d="M120.505 10.1868V7.35376H122.467V10.1868H125.147V11.7987H122.467V17.462C122.467 19.0738 123.185 19.641 124.8 19.641H125.147V21.2529C124.907 21.2963 124.58 21.3397 124.276 21.3397C121.793 21.3397 120.505 20.1185 120.505 17.3954V10.1868Z" fill="#00AFD5"/>
<path d="M-0.000488281 32.523H5.88849V33.7848H5.02901C5.32129 34.1002 5.50071 34.4995 5.50071 34.9712C5.50071 36.2329 4.54285 37.214 2.99175 37.214C1.44065 37.214 0.482784 36.2329 0.482784 34.9712C0.482784 34.4995 0.653521 34.0973 0.95448 33.7848H-0.000488281V32.523ZM1.23518 30.6681H4.7512V31.953H1.23518V30.6681ZM2.99175 35.9899C3.64576 35.9899 4.02196 35.5413 4.02196 34.9712C4.02196 34.4011 3.65733 33.9294 2.99175 33.9294C2.32616 33.9294 1.96154 34.4011 1.96154 34.9712C1.96154 35.5413 2.34931 35.9899 2.99175 35.9899ZM2.1699 37.7233H3.721V39.6014H9.0775V40.921H2.75156C2.38693 40.921 2.1699 40.7763 2.1699 40.4232V37.7204V37.7233ZM7.26017 30.4019H8.81127V38.4265H7.26017V36.4992H6.10842V35.1912H7.26017V34.2102H6.16919V32.9021H7.26017V30.4047V30.4019Z" fill="#003469"/>
<path d="M10.3247 31.3858H14.2748V32.7083H11.815V36.6468H13.1607C13.9131 36.6468 14.5902 36.5484 15.1487 36.2359V30.5871H16.6043V33.9555H17.6346V30.4048H19.1133V40.8776H17.6346V35.2896H16.6043V40.5738H15.1487V37.3008C14.4947 37.7494 13.6092 37.9664 12.5443 37.9664H10.9208C10.5446 37.9664 10.3276 37.8217 10.3276 37.4687V31.3829L10.3247 31.3858Z" fill="#003469"/>
<path d="M23.1776 30.9227C24.9487 30.9227 26.0512 32.0513 26.0512 33.6864C26.0512 35.3214 24.9487 36.4616 23.1776 36.4616C21.4066 36.4616 20.2925 35.333 20.2925 33.6864C20.2925 32.0398 21.4066 30.9227 23.1776 30.9227ZM23.1776 35.1535C23.9763 35.1535 24.5117 34.5603 24.5117 33.6864C24.5117 32.8124 23.9792 32.2308 23.1776 32.2308C22.376 32.2308 21.8436 32.824 21.8436 33.6864C21.8436 34.5487 22.376 35.1535 23.1776 35.1535ZM22.2458 37.1908H23.7969V39.6043H29.0579V40.9239H22.8275C22.4629 40.9239 22.2458 40.7792 22.2458 40.4261V37.1908ZM27.2377 30.4019H28.7888V38.1226H27.2377V30.4019Z" fill="#003469"/>
<path d="M30.022 35.4807H39.6209V36.7424H30.022V35.4807ZM31.4284 30.7898H38.2289V32.0631H35.6968C36.0007 33.0209 37.1379 33.4203 38.6543 33.6026L38.3157 34.8643C36.7994 34.7196 35.3206 34.2595 34.8258 33.2756C34.3164 34.2566 32.8753 34.7312 31.3474 34.8759L31.0088 33.6142C32.5107 33.4319 33.6509 33.0209 33.9431 32.0631H31.4342V30.7898H31.4284ZM34.8229 37.3964C36.918 37.3964 38.1797 38.1488 38.1797 39.4077C38.1797 40.6665 36.918 41.4334 34.8229 41.4334C32.7277 41.4334 31.466 40.681 31.466 39.4077C31.466 38.1344 32.7277 37.3964 34.8229 37.3964ZM34.8229 40.1832C35.9746 40.1832 36.6286 39.9401 36.6286 39.4077C36.6286 38.8752 35.9746 38.6437 34.8229 38.6437C33.6711 38.6437 33.0171 38.8868 33.0171 39.4077C33.0171 39.9286 33.6595 40.1832 34.8229 40.1832Z" fill="#003469"/>
<path d="M40.4136 35.3965H50.0125V36.6583H45.99V37.5062C47.6135 37.6509 48.5713 38.3425 48.5713 39.4335C48.5713 40.7068 47.3096 41.4331 45.2145 41.4331C43.1193 41.4331 41.8576 40.7068 41.8576 39.4335C41.8576 38.3425 42.8039 37.6509 44.4389 37.5062V36.6583H40.4136V35.3965ZM41.82 30.7896H48.6205V32.0628H46.0884C46.3923 33.0207 47.5295 33.4201 49.0459 33.6024L48.7073 34.8641C47.191 34.7194 45.7122 34.2593 45.2174 33.2754C44.708 34.2564 43.2669 34.731 41.739 34.8757L41.4004 33.6139C42.9023 33.4316 44.0425 33.0207 44.3347 32.0628H41.8258V30.7896H41.82ZM45.2145 40.183C46.3662 40.183 47.0202 39.9659 47.0202 39.4306C47.0202 38.8952 46.3662 38.6782 45.2145 38.6782C44.0627 38.6782 43.4087 38.8952 43.4087 39.4306C43.4087 39.9659 44.0511 40.183 45.2145 40.183Z" fill="#003469"/>
<path d="M53.4348 34.7428H54.9859V38.2212H59.7375V39.5668H50.1387V38.2212H53.4348V34.7428ZM51.3975 31.2644H58.3051V32.6447C58.3051 34.0743 58.1604 35.6399 57.9057 36.9103L56.4386 36.7164C56.6556 35.5038 56.754 34.2566 56.754 33.128V32.6071H51.3975V31.2615V31.2644Z" fill="#003469"/>
<path d="M60.7382 33.1194H66.1324V34.4274H64.2427C64.4134 35.6776 65.0443 36.6933 66.5693 37.4457L65.8054 38.6206C64.726 38.1113 63.7826 37.1795 63.4903 36.2679C63.1864 37.275 62.217 38.2328 61.0652 38.8L60.3013 37.6367C61.8032 36.8727 62.5324 35.6978 62.6279 34.4245H60.7382V33.1165V33.1194ZM61.6729 31.059H65.2005V32.3815H61.6729V31.059ZM67.3102 30.4021H68.8613V34.1236H70.2908V35.4692H68.8613V40.8749H67.3102V30.4021Z" fill="#003469"/>
</g>
<defs>
<clipPath id="clip0_41_4515">
<rect width="164" height="42" fill="white"/>
</clipPath>
</defs>
</svg>
